<svg width="35" height="36" viewBox="0 0 35 36" fill="none" xmlns="http://www.w3.org/2000/svg">
<rect y="0.287254" width="35" height="35" rx="17.5" fill="#1F2022"/>
<path d="M15.9811 25.2874C16.8686 25.2874 17.5882 24.5679 17.5882 23.6803C17.5882 22.7927 16.8686 22.0732 15.9811 22.0732C15.0935 22.0732 14.3739 22.7927 14.3739 23.6803C14.3739 24.5679 15.0935 25.2874 15.9811 25.2874Z" fill="white"/>
<path d="M21.3378 25.2874C22.2254 25.2874 22.9449 24.5679 22.9449 23.6803C22.9449 22.7927 22.2254 22.0732 21.3378 22.0732C20.4502 22.0732 19.7307 22.7927 19.7307 23.6803C19.7307 24.5679 20.4502 25.2874 21.3378 25.2874Z" fill="white"/>
<path d="M14.058 12.4299C13.7712 12.4299 13.5212 12.2348 13.4516 11.9565L13.1526 10.7605C13.0831 10.4823 12.8331 10.2871 12.5463 10.2871H10.6236C10.3277 10.2871 10.0879 10.527 10.0879 10.8228C10.0879 11.1187 10.3277 11.3585 10.6236 11.3585H11.4749C11.7617 11.3585 12.0117 11.5537 12.0812 11.8319L14.2552 20.5279C14.3248 20.8061 14.5747 21.0013 14.8615 21.0013H22.4569C22.7437 21.0013 22.9937 20.8061 23.0632 20.5279L24.8936 13.2065C24.9922 12.8121 24.6938 12.4299 24.2872 12.4299H14.058Z" fill="white"/>
</svg>
