<svg width="15" height="15" viewBox="0 0 15 15" fill="none" xmlns="http://www.w3.org/2000/svg">
<path d="M6.06895 15C6.95654 15 7.67607 14.2805 7.67607 13.3929C7.67607 12.5053 6.95654 11.7858 6.06895 11.7858C5.18136 11.7858 4.46182 12.5053 4.46182 13.3929C4.46182 14.2805 5.18136 15 6.06895 15Z" fill="white"/>
<path d="M11.4257 15C12.3133 15 13.0328 14.2805 13.0328 13.3929C13.0328 12.5053 12.3133 11.7858 11.4257 11.7858C10.5381 11.7858 9.81857 12.5053 9.81857 13.3929C9.81857 14.2805 10.5381 15 11.4257 15Z" fill="white"/>
<path d="M4.14586 2.14259C3.85907 2.14259 3.60909 1.9474 3.53953 1.66918L3.24053 0.473166C3.17097 0.19494 2.92098 -0.000244141 2.6342 -0.000244141H0.71149C0.415627 -0.000244141 0.175781 0.2396 0.175781 0.535464C0.175781 0.831327 0.415626 1.07117 0.711489 1.07117H1.56278C1.84957 1.07117 2.09956 1.26636 2.16911 1.54458L4.34309 10.2405C4.41265 10.5187 4.66264 10.7139 4.94943 10.7139H12.5448C12.8316 10.7139 13.0816 10.5187 13.1511 10.2405L14.9815 2.91916C15.0801 2.5247 14.7817 2.14259 14.3751 2.14259H4.14586Z" fill="white"/>
</svg>
