<svg width="15" height="15" viewBox="0 0 15 15" fill="none" xmlns="http://www.w3.org/2000/svg">
<path d="M6.06797 15C6.95556 15 7.67509 14.2805 7.67509 13.3929C7.67509 12.5053 6.95556 11.7858 6.06797 11.7858C5.18038 11.7858 4.46085 12.5053 4.46085 13.3929C4.46085 14.2805 5.18038 15 6.06797 15Z" fill="#1F2022"/>
<path d="M11.4247 15C12.3123 15 13.0318 14.2805 13.0318 13.3929C13.0318 12.5053 12.3123 11.7858 11.4247 11.7858C10.5371 11.7858 9.8176 12.5053 9.8176 13.3929C9.8176 14.2805 10.5371 15 11.4247 15Z" fill="#1F2022"/>
<path d="M4.14489 2.14259C3.8581 2.14259 3.60811 1.9474 3.53855 1.66918L3.23955 0.473166C3.17 0.19494 2.92001 -0.000244141 2.63322 -0.000244141H0.710513C0.41465 -0.000244141 0.174805 0.2396 0.174805 0.535464C0.174805 0.831327 0.414649 1.07117 0.710513 1.07117H1.5618C1.84859 1.07117 2.09858 1.26636 2.16814 1.54458L4.34212 10.2405C4.41167 10.5187 4.66166 10.7139 4.94845 10.7139H12.5438C12.8306 10.7139 13.0806 10.5187 13.1501 10.2405L14.9805 2.91916C15.0791 2.5247 14.7808 2.14259 14.3742 2.14259H4.14489Z" fill="#1F2022"/>
</svg>
