<svg width="99" height="100" viewBox="0 0 99 100" fill="none" xmlns="http://www.w3.org/2000/svg">
<path fill-rule="evenodd" clip-rule="evenodd" d="M17.667 53.194V0H98.6669V58H24.717L16.3869 63.91C16.5669 64.576 16.667 65.277 16.667 66C16.667 66.416 16.637 66.825 16.577 67.224L33.8569 79.506C34.7369 79.179 35.6769 79 36.6669 79C41.0769 79 44.6669 82.585 44.6669 87H49.6669C52.9769 87 55.6669 89.686 55.6669 93V100H18.667C18.667 100 18.667 96.408 18.667 93C18.667 89.686 21.357 87 24.667 87H28.667C28.667 86.558 28.7069 86.125 28.7769 85.704L11.547 73.465C10.657 73.811 9.68698 74 8.66698 74C4.25699 74 0.666992 70.415 0.666992 66C0.666992 61.585 4.25699 58 8.66698 58C9.32698 58 9.96701 58.079 10.577 58.229L17.667 53.194ZM53.6669 93V98H20.667V93C20.667 90.791 22.457 89 24.667 89C31.557 89 42.7769 89 49.6669 89C51.8769 89 53.6669 90.791 53.6669 93ZM42.6669 87H30.667C30.667 83.689 33.357 81 36.6669 81C39.9769 81 42.6669 83.689 42.6669 87ZM15.977 69.253L31.9069 80.571C30.8269 81.375 29.9469 82.446 29.3869 83.686L13.4869 72.387C14.5569 71.575 15.417 70.498 15.977 69.253ZM8.66698 60C11.977 60 14.667 62.689 14.667 66C14.667 69.311 11.977 72 8.66698 72C5.35699 72 2.66699 69.311 2.66699 66C2.66699 62.689 5.35699 60 8.66698 60ZM12.767 59.127L49.967 32.72C50.537 33.956 51.3669 35.043 52.3969 35.904L15.6069 62.015C14.9169 60.827 13.937 59.83 12.767 59.127ZM27.537 56L54.197 37.078C54.387 37.172 54.5769 37.259 54.7769 37.339L51.447 40.667L50.4869 39.709L48.837 40.883L51.447 43.496L57.0169 37.927C57.3969 37.975 57.7769 38 58.1669 38C58.5569 38 58.9369 37.975 59.3169 37.927L64.8869 43.496L72.6669 35.718L67.097 30.149C67.147 29.773 67.1669 29.389 67.1669 29C67.1669 28.611 67.147 28.227 67.097 27.851L72.6669 22.282L64.8869 14.504L59.3169 20.073C58.9369 20.025 58.5569 20 58.1669 20C57.7769 20 57.3969 20.025 57.0169 20.073L51.447 14.504L43.6669 22.282L49.2369 27.851C49.1969 28.227 49.1669 28.611 49.1669 29C49.1669 29.389 49.1969 29.773 49.2369 30.149L47.0469 32.344L19.667 51.774V2H96.6669V56H27.537ZM66.5069 32.389L69.837 35.718L64.8869 40.667L61.5569 37.339C63.7969 36.425 65.5969 34.632 66.5069 32.389ZM58.1669 22.118C61.9669 22.118 65.0469 25.202 65.0469 29C65.0469 32.798 61.9669 35.882 58.1669 35.882C54.3669 35.882 51.2869 32.798 51.2869 29C51.2869 25.202 54.3669 22.118 58.1669 22.118ZM61.5569 20.661L64.8869 17.333L69.837 22.282L66.5069 25.611C65.5869 23.367 63.7969 21.574 61.5569 20.661ZM54.7769 20.661C52.5369 21.575 50.737 23.368 49.827 25.611L46.4969 22.282L51.447 17.333L54.7769 20.661Z" fill="#E86319"/>
</svg>
