<svg width="97" height="100" viewBox="0 0 97 100" fill="none" xmlns="http://www.w3.org/2000/svg">
<path fill-rule="evenodd" clip-rule="evenodd" d="M5.60709 23.011L0.867102 14.804C0.337102 13.885 0.197078 12.793 0.467078 11.769C0.747077 10.744 1.40706 9.87 2.32706 9.34C5.85706 7.306 11.457 4.073 16.187 1.34C18.487 0.0139977 21.2171 -0.345995 23.7771 0.341005C25.817 0.888005 27.6271 2.065 28.9371 3.685C33.3971 4.185 37.6071 6.38202 40.5571 10.002L77.0871 26.438C79.0971 24.908 81.607 24 84.327 24C90.957 24 96.327 29.377 96.327 36C96.327 42.328 91.427 47.518 85.207 47.968L65.397 85H73.327C77.197 85 80.327 88.134 80.327 92C80.327 94.195 80.327 96.447 80.327 98C80.327 98.53 80.117 99.039 79.747 99.414C79.367 99.789 78.857 100 78.327 100C70.0671 100 38.5971 100 30.3271 100C29.7971 100 29.2971 99.789 28.9171 99.414C28.5471 99.039 28.3271 98.53 28.3271 98C28.3271 96.447 28.3271 94.195 28.3271 92C28.3271 88.134 31.4671 85 35.3271 85H50.397L73.5969 41.374L73.577 41.331C72.8571 39.886 72.4269 38.275 72.3469 36.573L44.1871 24.371C43.9371 25.649 43.557 26.898 43.037 28.093C43.777 30.046 43.897 32.196 43.347 34.239C42.657 36.801 40.9871 38.985 38.6871 40.311C33.9571 43.044 28.3571 46.277 24.8271 48.311C23.9071 48.841 22.8171 48.985 21.7971 48.711C20.7671 48.436 19.8971 47.766 19.3671 46.847L13.6471 36.936C8.65706 36.374 4.77707 32.137 4.77707 27C4.77707 25.583 5.07709 24.234 5.60709 23.011ZM78.327 98H30.3271V92C30.3271 89.239 32.5671 87 35.3271 87H73.327C76.097 87 78.327 89.239 78.327 92V98ZM74.827 43.325C76.757 45.828 79.6569 47.547 82.9669 47.923L63.137 85H52.657L74.827 43.325ZM84.397 48H84.327H84.387H84.397ZM84.2169 47.999L84.247 48L84.2169 47.999ZM84.4769 47.999L84.417 48L84.437 47.999H84.4769ZM84.557 47.998C84.537 47.998 84.517 47.999 84.487 47.999L84.557 47.998ZM84.137 47.998L84.167 47.999L84.137 47.998ZM84.627 47.996L84.577 47.998L84.6069 47.997L84.627 47.996ZM84.047 47.997H84.0871H84.047ZM84.7169 47.994L84.647 47.996H84.657L84.7169 47.994ZM83.987 47.995L83.997 47.996L83.9669 47.995H83.987ZM84.787 47.992L84.7169 47.994L84.777 47.992H84.787ZM83.897 47.992L83.917 47.993L83.887 47.992H83.897ZM84.8569 47.989L84.807 47.991L84.827 47.99L84.8569 47.989ZM83.807 47.989L83.8371 47.99L83.807 47.989ZM84.937 47.985C84.917 47.986 84.897 47.987 84.877 47.988L84.937 47.985ZM83.7169 47.985L83.757 47.986L83.7169 47.985ZM85.007 47.981L84.9669 47.983L85.007 47.981ZM83.637 47.98L83.667 47.982L83.637 47.98ZM85.067 47.978L85.037 47.979L85.067 47.978ZM83.537 47.974L83.557 47.976L83.537 47.974ZM85.157 47.972L85.147 47.973L85.157 47.972ZM83.447 47.968L83.4769 47.97L83.447 47.968ZM83.367 47.962L83.397 47.964L83.367 47.962ZM83.287 47.955L83.317 47.957L83.287 47.955ZM83.207 47.948L83.237 47.95L83.207 47.948ZM83.127 47.94L83.147 47.942L83.127 47.94ZM83.047 47.932L83.067 47.934L83.047 47.932ZM28.117 6L40.617 27.651C41.677 29.488 41.967 31.672 41.417 33.721C40.8671 35.771 39.5271 37.518 37.6871 38.579C32.9571 41.312 27.3571 44.545 23.8271 46.579C23.3771 46.844 22.8271 46.916 22.3171 46.779C21.7971 46.641 21.367 46.306 21.097 45.847L2.59708 13.804C2.33708 13.344 2.26707 12.799 2.39707 12.286C2.53707 11.774 2.87706 11.337 3.32706 11.072L17.187 3.07199C19.027 2.01099 21.207 1.72301 23.257 2.27301C25.307 2.82201 27.057 4.163 28.117 6ZM84.327 26C89.847 26 94.327 30.481 94.327 36C94.327 41.519 89.847 46 84.327 46C78.817 46 74.327 41.519 74.327 36C74.327 30.481 78.817 26 84.327 26ZM74.787 43.267V43.268V43.267ZM74.737 43.21V43.211V43.21ZM74.697 43.152V43.153V43.152ZM74.657 43.094V43.096V43.094ZM74.607 43.035L74.617 43.038L74.607 43.035ZM74.567 42.976V42.98V42.976ZM74.527 42.917V42.922V42.917ZM74.487 42.858V42.863V42.858ZM74.447 42.798V42.804V42.798ZM74.407 42.738V42.745V42.738ZM74.367 42.678V42.686V42.678ZM74.327 42.618V42.626V42.618ZM74.287 42.557V42.566V42.557ZM74.237 42.497L74.247 42.506L74.237 42.497ZM74.2071 42.436V42.445V42.436ZM74.167 42.375V42.384V42.375ZM74.127 42.313L74.137 42.323L74.127 42.313ZM74.0871 42.252L74.0969 42.262L74.0871 42.252ZM74.047 42.19L74.057 42.2L74.047 42.19ZM74.017 42.128V42.138V42.128ZM73.977 42.066L73.987 42.076L73.977 42.066ZM73.937 42.004L73.947 42.014L73.937 42.004ZM84.327 30C87.647 30 90.327 32.689 90.327 36C90.327 39.311 87.647 42 84.327 42C81.017 42 78.327 39.311 78.327 36C78.327 32.689 81.017 30 84.327 30ZM73.907 41.942V41.951V41.942ZM73.867 41.879L73.877 41.888L73.867 41.879ZM73.8371 41.817V41.824V41.817ZM73.797 41.754L73.807 41.761L73.797 41.754ZM73.767 41.691V41.697V41.691ZM73.727 41.628L73.737 41.633L73.727 41.628ZM73.697 41.565V41.568V41.565ZM73.667 41.501V41.504V41.501ZM73.637 41.437V41.439V41.437ZM84.327 32C86.537 32 88.327 33.792 88.327 36C88.327 38.208 86.537 40 84.327 40C82.127 40 80.327 38.208 80.327 36C80.327 33.792 82.127 32 84.327 32ZM6.94705 25.34L12.2971 34.609C9.09709 33.565 6.77707 30.551 6.77707 27C6.77707 26.431 6.83705 25.876 6.94705 25.34ZM42.5871 13.108L75.477 27.907C73.887 29.643 72.8071 31.845 72.4571 34.284L72.387 34.412L44.4571 22.272C44.6771 19.192 44.0771 16.027 42.5871 13.108ZM30.397 5.95499C34.477 6.87099 38.1771 9.42301 40.4271 13.325C42.6771 17.227 43.0471 21.706 41.7971 25.696L30.397 5.95499Z" fill="#E86319"/>
</svg>
