<svg width="100" height="100" viewBox="0 0 100 100" fill="none" xmlns="http://www.w3.org/2000/svg">
<path fill-rule="evenodd" clip-rule="evenodd" d="M91.66 0C90.6 0 89.58 0.420997 88.83 1.172C87.7 2.304 85.91 4.08799 84.24 5.75699C83.12 6.88299 82.49 8.409 82.49 10C82.49 11.591 83.12 13.117 84.24 14.243C85.23 15.232 86.26 16.261 87.17 17.172C87.92 17.922 88.34 18.939 88.34 20C88.34 21.061 87.92 22.078 87.17 22.828C86.26 23.739 85.23 24.768 84.24 25.757C83.12 26.883 82.49 28.409 82.49 30C82.49 31.591 83.12 33.117 84.24 34.243C85.23 35.232 86.26 36.261 87.17 37.172C87.92 37.922 88.34 38.939 88.34 40C88.34 41.061 87.92 42.078 87.17 42.828C86.26 43.739 85.23 44.768 84.24 45.757C83.12 46.883 82.49 48.409 82.49 50C82.49 51.591 83.12 53.117 84.24 54.243C85.23 55.232 86.26 56.261 87.17 57.172C87.92 57.922 88.34 58.939 88.34 60C88.34 61.061 87.92 62.078 87.17 62.828C86.26 63.739 85.23 64.768 84.24 65.757C83.12 66.883 82.49 68.409 82.49 70C82.49 71.591 83.12 73.117 84.24 74.243C85.23 75.232 86.26 76.261 87.17 77.172C87.92 77.922 88.34 78.939 88.34 80C88.34 81.061 87.92 82.078 87.17 82.828C86.26 83.739 85.23 84.768 84.24 85.757C83.12 86.883 82.49 88.409 82.49 90C82.49 91.591 83.12 93.117 84.24 94.243C85.91 95.912 87.7 97.696 88.83 98.828C89.58 99.579 90.6 100 91.66 100C94.5 100 100 100 100 100V0H91.66ZM91.66 2H98V98H91.66C91.13 98 90.62 97.789 90.24 97.414L85.66 92.828C84.91 92.078 84.49 91.061 84.49 90C84.49 88.939 84.91 87.922 85.66 87.172C86.65 86.183 87.67 85.153 88.59 84.243C89.71 83.117 90.34 81.591 90.34 80C90.34 78.409 89.71 76.883 88.59 75.757C87.67 74.847 86.65 73.817 85.66 72.828C84.91 72.078 84.49 71.061 84.49 70C84.49 68.939 84.91 67.922 85.66 67.172C86.65 66.183 87.67 65.153 88.59 64.243C89.71 63.117 90.34 61.591 90.34 60C90.34 58.409 89.71 56.883 88.59 55.757C87.67 54.847 86.65 53.817 85.66 52.828C84.91 52.078 84.49 51.061 84.49 50C84.49 48.939 84.91 47.922 85.66 47.172C86.65 46.183 87.67 45.153 88.59 44.243C89.71 43.117 90.34 41.591 90.34 40C90.34 38.409 89.71 36.883 88.59 35.757C87.67 34.847 86.65 33.817 85.66 32.828C84.91 32.078 84.49 31.061 84.49 30C84.49 28.939 84.91 27.922 85.66 27.172C86.65 26.183 87.67 25.153 88.59 24.243C89.71 23.117 90.34 21.591 90.34 20C90.34 18.409 89.71 16.883 88.59 15.757C87.67 14.847 86.65 13.817 85.66 12.828C84.91 12.078 84.49 11.061 84.49 10C84.49 8.939 84.91 7.922 85.66 7.172L90.24 2.586C90.62 2.211 91.13 2 91.66 2ZM61.36 27.835C66.15 33.947 69 41.643 69 50C69 58.357 66.15 66.053 61.36 72.165L59.79 70.934C64.31 65.161 67 57.893 67 50C67 42.107 64.31 34.839 59.79 29.066L61.36 27.835ZM32.74 55.998C32.49 59.973 31.95 63.847 31.11 67.621C30.87 68.612 30.19 69.42 29.28 69.788C28.37 70.157 27.34 70.039 26.53 69.473C23.7 67.502 19.7799 64.771 17.3199 63.056C15.8099 62.005 14.01 61.441 12.17 61.441C10.7 61.441 8.83 61.441 7 61.441C3.13 61.441 0 58.307 0 54.441C0 51.591 0 48.304 0 45.455C0 41.589 3.13 38.455 7 38.455C8.83 38.455 10.7 38.455 12.17 38.454C14.01 38.454 15.8099 37.891 17.3199 36.841C19.7399 35.154 23.58 32.484 26.4 30.525C27.23 29.95 28.2699 29.84 29.1899 30.231C30.1099 30.622 30.78 31.464 30.99 32.477C31.77 36.402 32.31 40.245 32.61 44.007C32.7 44.002 32.8 44 32.89 44C36.2 44 38.89 46.689 38.89 50C38.89 53.311 36.2 56 32.89 56C32.84 56 32.79 55.999 32.74 55.998ZM2 54.441V45.455C2 42.693 4.24 40.455 7 40.455C8.83 40.455 10.7 40.455 12.17 40.454C14.42 40.454 16.62 39.766 18.46 38.482C20.88 36.796 24.72 34.126 27.54 32.168C27.54 32.167 27.54 32.167 27.54 32.166C27.8 31.988 28.12 31.95 28.4 32.071C28.73 32.209 28.95 32.516 29.03 32.873C31.46 45.112 31.52 56.543 29.16 67.161C29.07 67.514 28.85 67.806 28.53 67.934C28.25 68.049 27.93 68.008 27.67 67.832L18.46 61.415C16.62 60.13 14.42 59.441 12.17 59.441H7C4.24 59.441 2 57.202 2 54.441ZM52.6899 34.608C56.0199 38.852 58 44.197 58 50C58 55.803 56.0199 61.148 52.6899 65.392L51.12 64.161C54.18 60.256 56 55.339 56 50C56 44.661 54.18 39.744 51.12 35.839L52.6899 34.608ZM44.8199 40.765C46.8099 43.311 48 46.518 48 50C48 53.482 46.8099 56.689 44.8199 59.235L43.24 58.004C44.97 55.797 46 53.018 46 50C46 46.982 44.97 44.203 43.24 41.996L44.8199 40.765ZM32.84 54C32.85 54 32.87 54 32.89 54C35.1 54 36.89 52.208 36.89 50C36.89 47.792 35.1 46 32.89 46C32.84 46 32.79 46.001 32.75 46.003C32.9 48.711 32.93 51.376 32.84 54Z" fill="#E86319"/>
</svg>
