<svg width="101" height="100" viewBox="0 0 101 100" fill="none" xmlns="http://www.w3.org/2000/svg">
<path fill-rule="evenodd" clip-rule="evenodd" d="M50.333 0C77.929 0 100.333 22.404 100.333 50C100.333 77.596 77.929 100 50.333 100C22.737 100 0.333008 77.596 0.333008 50C0.333008 22.404 22.737 0 50.333 0ZM47.729 97.93L50.333 71.143L52.937 97.93C52.076 97.977 51.207 98 50.333 98C49.459 98 48.59 97.977 47.729 97.93ZM5.85401 31.935L50.315 23.04L94.812 31.936C95.83 34.437 96.642 37.04 97.229 39.727L65.504 37.007C64.946 36.959 64.393 37.148 63.981 37.527C63.568 37.905 63.333 38.44 63.333 39V96.216C60.622 96.978 57.814 97.507 54.932 97.782L52.324 70.949C52.224 69.925 51.363 69.143 50.333 69.143C49.303 69.143 48.442 69.925 48.342 70.949L45.734 97.782C42.852 97.508 40.045 96.978 37.333 96.216V39C37.333 38.44 37.098 37.905 36.685 37.527C36.273 37.148 35.72 36.959 35.162 37.007L3.437 39.727C4.024 37.038 4.83701 34.434 5.85401 31.935ZM26.854 91.867L35.333 84.692V95.606C32.369 94.63 29.532 93.374 26.854 91.867ZM65.333 95.606V84.692L73.812 91.867C71.133 93.374 68.296 94.63 65.333 95.606ZM83.445 84.737C81.061 87.01 78.445 89.041 75.634 90.789L65.333 82.072V65.115L83.445 84.737ZM17.221 84.737L35.333 65.115V82.072L25.032 90.789C22.222 89.041 19.605 87.011 17.221 84.737ZM97.628 41.768C98.092 44.445 98.333 47.195 98.333 50C98.333 62.939 93.203 74.688 84.865 83.326L65.333 62.167V39L97.628 41.768ZM3.03801 41.768L35.333 39V62.167L15.801 83.326C7.46301 74.688 2.33301 62.939 2.33301 50C2.33301 47.195 2.57401 44.445 3.03801 41.768ZM77.415 26.418L85.973 17.86C89.144 21.374 91.805 25.361 93.836 29.701L77.415 26.418ZM14.693 17.86L23.248 26.415L6.83101 29.7C8.86001 25.362 11.521 21.376 14.693 17.86ZM78.728 11.306C80.822 12.847 82.786 14.552 84.602 16.403L75.155 25.849L70.176 24.971L63.627 23.662L78.728 11.306ZM21.938 11.306L37.033 23.657L30.303 25.004L25.511 25.849L16.064 16.403C17.879 14.552 19.844 12.846 21.938 11.306ZM56.884 2.444C58.997 4.278 60.333 6.983 60.333 10C60.333 10.995 60.333 12.005 60.333 13C60.333 16.888 58.115 20.257 54.874 21.912L61.089 23.154L77.029 10.112C71.111 6.142 64.263 3.453 56.884 2.444ZM43.783 2.444C36.402 3.453 29.554 6.143 23.637 10.112L39.571 23.149L45.782 21.907C42.547 20.25 40.333 16.884 40.333 13V10C40.333 6.983 41.669 4.278 43.783 2.444ZM50.333 2C54.751 2 58.333 5.582 58.333 10V13C58.333 17.418 54.751 21 50.333 21C45.915 21 42.333 17.418 42.333 13V10C42.333 5.582 45.915 2 50.333 2Z" fill="#E86319"/>
</svg>
