<svg width="66" height="100" viewBox="0 0 66 100" fill="none" xmlns="http://www.w3.org/2000/svg">
<path fill-rule="evenodd" clip-rule="evenodd" d="M2.27502 41.57L7.14801 16.224C8.95801 6.807 17.198 0 26.788 0C30.835 0 35.165 0 39.212 0C48.802 0 57.042 6.807 58.852 16.224L63.725 41.57C65.135 42.972 66 44.911 66 47.037C66 49.311 66 51.809 66 54C66 55.591 65.368 57.117 64.243 58.243C63.117 59.368 61.591 60 60 60H57.286L62.542 96.793C62.657 97.599 62.417 98.416 61.883 99.031C61.349 99.647 60.575 100 59.76 100C59.759 100 59.758 100 59.758 100C58.125 100 56.691 98.918 56.242 97.348L47 65H19L9.75799 97.348C9.30899 98.918 7.875 100 6.242 100C6.242 100 6.24099 100 6.23999 100C5.42499 100 4.651 99.647 4.117 99.031C3.583 98.416 3.34301 97.599 3.45801 96.793L8.71399 60H6C4.409 60 2.88302 59.368 1.75702 58.243C0.632019 57.117 0 55.591 0 54C0 51.809 0 49.311 0 47.037C0 44.911 0.865024 42.972 2.27502 41.57ZM47.651 60H55.265L60.562 97.075C60.595 97.308 60.526 97.543 60.372 97.721C60.218 97.898 59.995 98 59.76 98H59.758C59.018 98 58.369 97.51 58.165 96.799L47.651 60ZM12.447 60H18.349L7.83502 96.799C7.63102 97.51 6.982 98 6.242 98H6.23999C6.00499 98 5.78199 97.898 5.62799 97.721C5.47399 97.543 5.40499 97.308 5.43799 97.075L10.735 60H12.447ZM19.571 63H46.429L45.571 60H20.429L19.571 63ZM60 58H6C4.939 58 3.922 57.579 3.172 56.828C2.421 56.078 2 55.061 2 54C2 51.809 2 49.311 2 47.037C2 44.086 4.25002 41.622 7.18902 41.355H7.19C24.361 39.794 41.639 39.794 58.81 41.355H58.811C61.75 41.622 64 44.086 64 47.037V54C64 55.061 63.579 56.078 62.828 56.828C62.078 57.579 61.061 58 60 58ZM61.382 39.975L56.888 16.602C55.259 8.12599 47.843 2 39.212 2C35.165 2 30.835 2 26.788 2C18.157 2 10.741 8.12599 9.112 16.602L4.61798 39.975C5.35898 39.651 6.16199 39.44 7.00799 39.363C7.00799 39.363 7.00797 39.363 7.00897 39.363C24.301 37.791 41.699 37.791 58.991 39.363C58.992 39.363 58.992 39.363 58.992 39.363C59.838 39.44 60.641 39.651 61.382 39.975Z" fill="#E86319"/>
</svg>
