<svg width="101" height="100" viewBox="0 0 101 100" fill="none" xmlns="http://www.w3.org/2000/svg">
<path fill-rule="evenodd" clip-rule="evenodd" d="M4.66699 10H0.666992V0H100.667V10H96.667V82H93.667V100H85.667L81.167 82H20.167L15.667 100H7.66699V82H4.66699V10ZM18.105 82L14.105 98H9.66699V82H18.105ZM83.229 82H91.667V98H87.229L83.229 82ZM25.179 10H6.66699V80H94.667V10H25.179ZM88.667 48H12.667V76H88.667V48ZM86.667 50V74H14.667V50H86.667ZM50.667 54C53.427 54 55.667 56.24 55.667 59C55.667 61.76 53.427 64 50.667 64C47.907 64 45.667 61.76 45.667 59C45.667 56.24 47.907 54 50.667 54ZM50.667 56C52.323 56 53.667 57.344 53.667 59C53.667 60.656 52.323 62 50.667 62C49.011 62 47.667 60.656 47.667 59C47.667 57.344 49.011 56 50.667 56ZM88.667 14H12.667V42H88.667V14ZM86.667 16V40H14.667V16H86.667ZM50.667 20C53.427 20 55.667 22.24 55.667 25C55.667 27.76 53.427 30 50.667 30C47.907 30 45.667 27.76 45.667 25C45.667 22.24 47.907 20 50.667 20ZM50.667 22C52.323 22 53.667 23.344 53.667 25C53.667 26.656 52.323 28 50.667 28C49.011 28 47.667 26.656 47.667 25C47.667 23.344 49.011 22 50.667 22ZM96.667 8H2.66699V2H98.667V8H96.667Z" fill="#E86319"/>
</svg>
