<svg width="14" height="15" viewBox="0 0 14 15" fill="none" xmlns="http://www.w3.org/2000/svg">
<path fill-rule="evenodd" clip-rule="evenodd" d="M7 14.5C10.866 14.5 14 11.366 14 7.5C14 3.63401 10.866 0.5 7 0.5C3.13401 0.5 0 3.63401 0 7.5C0 11.366 3.13401 14.5 7 14.5ZM6.01186 3.12869C6.49927 2.64075 7.16033 2.36663 7.84962 2.36663H9.31067C9.38049 2.36663 9.4371 2.4233 9.4371 2.4932V4.4059C9.4371 4.4758 9.38049 4.53247 9.31067 4.53247H7.84962C7.73412 4.53247 7.62334 4.57841 7.54167 4.66017C7.46 4.74193 7.41411 4.85283 7.41411 4.96846V6.41704H9.29489C9.37714 6.41704 9.4375 6.49443 9.41755 6.57431L8.9399 8.48701C8.92583 8.54335 8.87526 8.58288 8.81724 8.58288H7.41411V12.5067C7.41411 12.5766 7.35751 12.6333 7.28768 12.6333H5.37708C5.30725 12.6333 5.25064 12.5766 5.25064 12.5067V8.58288H3.85984C3.79001 8.58288 3.7334 8.52621 3.7334 8.45631V6.54362C3.7334 6.47371 3.79001 6.41704 3.85984 6.41704H5.25064V4.96846C5.25064 4.27841 5.52446 3.61662 6.01186 3.12869Z" fill="white"/>
</svg>
