<svg width="14" height="15" viewBox="0 0 14 15" fill="none" xmlns="http://www.w3.org/2000/svg">
<path d="M6.99999 5.02921C5.63311 5.02921 4.52504 6.13542 4.52504 7.5C4.52504 8.86458 5.63311 9.9708 6.99999 9.9708C8.36687 9.9708 9.47495 8.86458 9.47495 7.5C9.47495 6.13542 8.36687 5.02921 6.99999 5.02921Z" fill="white"/>
<path fill-rule="evenodd" clip-rule="evenodd" d="M3.01687 0.719736C5.64269 0.426755 8.35731 0.426755 10.9831 0.719736C12.4288 0.88104 13.5949 2.0182 13.7645 3.4665C14.0785 6.14637 14.0785 8.85363 13.7645 11.5335C13.5949 12.9818 12.4288 14.119 10.9831 14.2803C8.35731 14.5732 5.6427 14.5732 3.01687 14.2803C1.57119 14.119 0.405149 12.9818 0.235472 11.5335C-0.0784905 8.85363 -0.0784905 6.14637 0.235472 3.4665C0.405149 2.0182 1.57119 0.88104 3.01687 0.719736ZM10.8076 2.93853C10.387 2.93853 10.0461 3.27891 10.0461 3.69878C10.0461 4.11865 10.387 4.45902 10.8076 4.45902C11.2282 4.45902 11.5691 4.11865 11.5691 3.69878C11.5691 3.27891 11.2282 2.93853 10.8076 2.93853ZM3.38275 7.5C3.38275 5.50561 5.00224 3.88884 6.99999 3.88884C8.99774 3.88884 10.6172 5.50561 10.6172 7.5C10.6172 9.49439 8.99774 11.1112 6.99999 11.1112C5.00224 11.1112 3.38275 9.49439 3.38275 7.5Z" fill="white"/>
</svg>
