<svg width="52" height="89" viewBox="0 0 52 89" fill="none" xmlns="http://www.w3.org/2000/svg">
<path d="M6.67079 29.8557C6.45721 30.1496 6.81006 30.5173 7.11472 30.3198C7.84588 29.8468 8.7392 29.2706 9.75435 28.6159L9.75662 28.6144L9.75672 28.6144C16.6586 24.163 29.189 16.0815 34.6894 12.083C44.2433 5.13763 33.0135 -5.72734 25.4614 3.641C22.5396 7.2659 17.2154 14.8715 12.6827 21.3465L12.6826 21.3467L12.6824 21.3469C10.3086 24.7379 8.15176 27.8189 6.67079 29.8557Z" fill="#E86319"/>
<path d="M12.0343 40.2785C11.6691 40.3058 11.6214 40.8203 11.9739 40.9197C13.7952 41.4335 16.4448 42.2346 19.4754 43.151L19.4755 43.151C25.0341 44.8318 31.8742 46.9001 37.2346 48.2931C45.9521 50.5583 47.8202 37.9914 38.8602 38.5004C33.9182 38.7813 17.9002 39.8433 12.0343 40.2785Z" fill="#E86319"/>
<path d="M9.21138 35.6923C8.84764 35.7514 8.68149 35.2576 9.00499 35.0813C9.31033 34.9149 9.64274 34.7336 9.99901 34.5393C14.4106 32.1329 22.4795 27.7315 28.0953 24.9914C35.2613 21.4951 37.4162 31.3102 31.1472 32.2276C25.3235 33.0799 15.8795 34.6111 10.5055 35.4825C10.0422 35.5576 9.60921 35.6278 9.21138 35.6923Z" fill="#E86319"/>
<path fill-rule="evenodd" clip-rule="evenodd" d="M8.28763 72.9881C8.94653 73.2862 9.53819 73.6975 10.0465 74.2111C10.5549 74.7237 10.9655 75.3403 11.2673 76.0448C11.5697 76.7502 11.7225 77.5115 11.7225 78.3065C11.7225 79.1172 11.5693 79.882 11.2673 80.58C10.9655 81.2762 10.5549 81.8896 10.0465 82.4022C9.53819 82.9155 8.94653 83.3267 8.28763 83.6252C7.6271 83.924 6.92852 84.0761 6.21222 84.0761C5.54283 84.0761 4.95215 83.9722 4.45724 83.7675C3.96627 83.5645 3.53991 83.3349 3.18996 83.084C2.85313 82.8545 2.55402 82.5839 2.29919 82.2789V84.0525H0.46582V67.3774H2.29919V74.4508C2.55336 74.1392 2.85149 73.8582 3.18963 73.6132C3.53695 73.3495 3.96299 73.1015 4.45429 72.8779C4.95117 72.6516 5.5425 72.5368 6.21222 72.5368C6.92884 72.5368 7.6271 72.6886 8.28763 72.9881ZM9.56705 79.906C9.78056 79.4117 9.88912 78.8735 9.88912 78.3065C9.88912 77.7394 9.78056 77.2012 9.56705 76.7073C9.35223 76.211 9.06854 75.7755 8.72449 75.4114C8.38045 75.0477 7.98524 74.7604 7.55101 74.5577C7.1171 74.3551 6.66647 74.2524 6.21222 74.2524C5.72551 74.2524 5.24307 74.3626 4.77866 74.58C4.31228 74.7981 3.8892 75.0936 3.52023 75.4583C3.1529 75.8227 2.85412 76.2579 2.63273 76.7529C2.41168 77.2465 2.29919 77.7689 2.29919 78.3065C2.29919 78.8588 2.41168 79.3852 2.63273 79.8712C2.85379 80.3583 3.15257 80.7899 3.52023 81.1549C3.88854 81.5193 4.31162 81.8145 4.77833 82.0329C5.67697 82.454 6.65466 82.4743 7.55101 82.0558C7.98623 81.8525 8.38078 81.5655 8.72449 81.2015C9.06821 80.8384 9.3519 80.4025 9.56705 79.906Z" fill="#E86319"/>
<path d="M13.8937 72.5609H15.7268V84.0527H13.8937V72.5609Z" fill="#E86319"/>
<path d="M14.8098 67.5659C14.4874 67.5659 14.2116 67.6784 13.9905 67.8994C13.7698 68.1202 13.6576 68.3957 13.6576 68.7184C13.6576 69.0411 13.7698 69.3166 13.9905 69.5373C14.2112 69.7584 14.4871 69.8702 14.8098 69.8702C15.1322 69.8702 15.4077 69.7584 15.6287 69.5373C15.8501 69.3156 15.962 69.0401 15.962 68.7184C15.962 68.3963 15.8501 68.1212 15.6287 67.8994C15.407 67.6781 15.1319 67.5659 14.8098 67.5659Z" fill="#E86319"/>
<path d="M21.3263 73.4988C21.6464 73.2627 22.0448 73.042 22.5129 72.8422C22.9851 72.6396 23.5643 72.5366 24.2337 72.5366H24.7969V74.3699H23.9979C23.5411 74.3699 23.1006 74.4532 22.6893 74.6172C22.2777 74.7815 21.9071 75.0157 21.587 75.3135C21.2682 75.6107 21.014 75.977 20.8317 76.4007C20.6487 76.8251 20.5562 77.3132 20.5562 77.8507V84.0523H18.7231V72.5605H20.5562V74.2286C20.7779 73.9695 21.036 73.7248 21.3263 73.4988Z" fill="#E86319"/>
<path fill-rule="evenodd" clip-rule="evenodd" d="M37.1649 78.3064C37.1649 77.5101 37.0078 76.7489 36.6976 76.0438C36.388 75.3396 35.9652 74.7224 35.4411 74.2094C34.917 73.6968 34.2929 73.2852 33.5864 72.9867C32.8796 72.6883 32.1109 72.5367 31.3008 72.5367C30.4907 72.5367 29.7219 72.6883 29.0148 72.9867C28.3087 73.2852 27.6849 73.6965 27.1608 74.2094C26.6367 74.7224 26.2139 75.3396 25.9043 76.0438C25.5941 76.7489 25.437 77.5101 25.437 78.3064C25.437 79.1178 25.5941 79.883 25.9043 80.5803C26.2139 81.2769 26.6367 81.8899 27.1608 82.4032C27.6849 82.9161 28.3087 83.3277 29.0148 83.6258C29.7222 83.9246 30.491 84.0758 31.3008 84.0758C32.1105 84.0758 32.8793 83.9246 33.5864 83.6258C34.2929 83.3277 34.917 82.9158 35.4411 82.4032C35.9652 81.8899 36.388 81.2769 36.6976 80.5803C37.0078 79.883 37.1649 79.1178 37.1649 78.3064ZM31.3008 82.3605C30.7508 82.3605 30.2283 82.2536 29.7475 82.043C29.2664 81.8328 28.8357 81.5452 28.4671 81.1877C28.1011 80.8318 27.8062 80.4002 27.5924 79.906C27.3789 79.4124 27.2703 78.8742 27.2703 78.3064C27.2703 77.7384 27.3789 77.2005 27.5924 76.7072C27.8062 76.213 28.1011 75.7781 28.4681 75.4131C28.8354 75.05 29.2654 74.7624 29.7465 74.559C30.2283 74.3554 30.7511 74.252 31.3008 74.252C31.8501 74.252 32.3733 74.3554 32.855 74.559C33.3362 74.7624 33.7665 75.0497 34.1338 75.4131C34.5005 75.7774 34.7953 76.2127 35.0092 76.7072C35.223 77.2012 35.3316 77.7391 35.3316 78.3064C35.3316 78.8738 35.223 79.4117 35.0092 79.906C34.795 80.4009 34.5002 80.8361 34.1338 81.1992C33.7668 81.5632 33.3365 81.8508 32.855 82.0539C32.3742 82.2575 31.8514 82.3605 31.3008 82.3605Z" fill="#E86319"/>
<path d="M38.9482 86.8768C39.2053 86.6049 39.3355 86.1782 39.3355 85.6095V72.5605H41.1685V85.6095C41.1685 87.8588 40.1075 88.9998 38.0141 88.9998C37.7901 88.9998 37.5903 88.9831 37.4198 88.9509C37.2502 88.9184 37.0987 88.8774 36.9688 88.8286C36.8088 88.7656 36.6704 88.7003 36.5549 88.6351L36.5084 88.6085V86.8647L36.6464 86.9427C36.7553 87.0051 36.8796 87.0667 37.0151 87.1271C37.2676 87.2307 37.5651 87.2838 37.8963 87.2838C38.3388 87.2838 38.693 87.1467 38.9482 86.8768Z" fill="#E86319"/>
<path d="M40.2514 67.5659C39.929 67.5659 39.6532 67.6784 39.4321 67.8994C39.2111 68.1208 39.0989 68.396 39.0989 68.7184C39.0989 69.0408 39.2114 69.3163 39.4321 69.5373C39.6528 69.7584 39.9287 69.8702 40.2514 69.8702C40.5738 69.8702 40.8493 69.7584 41.0703 69.5373C41.2914 69.3163 41.4036 69.0408 41.4036 68.7184C41.4036 68.396 41.2917 68.1208 41.0703 67.8994C40.8486 67.6781 40.5735 67.5659 40.2514 67.5659Z" fill="#E86319"/>
<path d="M49.8948 78.1548C50.3524 78.3935 50.7426 78.7169 51.0559 79.1167C51.3737 79.5237 51.5347 80.0596 51.5347 80.7094C51.5347 81.1728 51.4366 81.6152 51.2428 82.0245C51.0496 82.4345 50.7679 82.7946 50.4065 83.0954C50.0454 83.3951 49.5997 83.6362 49.0811 83.8113C48.5633 83.9871 47.9713 84.076 47.3196 84.076C46.6046 84.076 45.9749 83.9724 45.4488 83.7684C44.9264 83.565 44.4833 83.3348 44.133 83.0842C43.7181 82.8015 43.3767 82.4571 43.1199 82.0613L43.0783 81.9966L44.3872 80.7687L44.4489 80.8517C44.6627 81.1377 44.9106 81.3919 45.1858 81.607C45.4301 81.8077 45.7358 81.9852 46.0953 82.1357C46.4511 82.2849 46.8631 82.3607 47.3196 82.3607C48.1258 82.3607 48.7318 82.1931 49.1212 81.8632C49.5118 81.5319 49.7013 81.1341 49.7013 80.6461C49.7013 80.2656 49.5626 79.9714 49.2776 79.7471C48.9801 79.5139 48.6085 79.3174 48.1727 79.1633C47.7312 79.0072 47.2379 78.856 46.7073 78.7136C46.1691 78.5697 45.6676 78.3814 45.2173 78.1538C44.7601 77.9232 44.3698 77.6113 44.0563 77.2266C43.7378 76.8347 43.5761 76.3139 43.5761 75.6776C43.5761 75.2739 43.6706 74.8764 43.8565 74.4966C44.0415 74.1187 44.3065 73.7816 44.6456 73.4956C44.9821 73.2112 45.3914 72.9781 45.8624 72.8023C46.335 72.6258 46.8654 72.5369 47.4377 72.5369C48.0428 72.5369 48.5807 72.6219 49.0362 72.7901C49.4868 72.9561 49.8765 73.1368 50.1943 73.3277C50.5603 73.5504 50.884 73.8091 51.1562 74.0964L51.2179 74.162L49.903 75.4765L49.8391 75.3949C49.6721 75.183 49.4718 74.9905 49.2441 74.8232C49.0362 74.6897 48.7758 74.5579 48.4744 74.4339C48.1805 74.3132 47.8319 74.2522 47.4377 74.2522C46.8198 74.2522 46.3206 74.4119 45.9549 74.7268C45.5882 75.0426 45.4098 75.3745 45.4098 75.7412C45.4098 76.1049 45.5476 76.3837 45.8313 76.5926C46.1284 76.8114 46.5 76.997 46.9372 77.1443C47.3836 77.2942 47.8768 77.4421 48.4039 77.5828C48.9434 77.7278 49.4455 77.9203 49.8948 78.1548Z" fill="#E86319"/>
<path fill-rule="evenodd" clip-rule="evenodd" d="M4.25328 64.9304C5.15869 65.4179 6.20338 65.6617 7.38735 65.6617C8.30669 65.6617 9.13548 65.5085 9.87372 65.202C10.6259 64.8956 11.2527 64.4499 11.7542 63.8648L10.6468 62.5694C10.2428 63.0152 9.76925 63.3495 9.22602 63.5723C8.69671 63.7952 8.10471 63.9066 7.45004 63.9066C6.65607 63.9066 5.95264 63.7464 5.33975 63.4261C4.72689 63.1057 4.24632 62.66 3.8981 62.0889C3.65131 61.657 3.49563 61.1834 3.43102 60.6681H12.4228C12.4367 60.5706 12.4436 60.4661 12.4436 60.3547C12.4576 60.2432 12.4646 60.1457 12.4646 60.0622C12.4646 58.92 12.2277 57.924 11.7542 57.0744C11.2945 56.2107 10.6537 55.5421 9.83192 55.0685C9.01012 54.5949 8.06291 54.3582 6.99037 54.3582C5.93175 54.3582 4.9776 54.6019 4.12792 55.0894C3.29217 55.563 2.63052 56.2247 2.14301 57.0744C1.66941 57.924 1.43262 58.8991 1.43262 59.9995C1.43262 61.0999 1.67637 62.0749 2.1639 62.9246C2.66536 63.7743 3.3618 64.4429 4.25328 64.9304ZM3.42714 59.2264C3.48576 58.7207 3.62881 58.261 3.85629 57.8474C4.16274 57.2763 4.58758 56.8376 5.13081 56.5311C5.67407 56.2107 6.29392 56.0505 6.99037 56.0505C7.70076 56.0505 8.32061 56.2107 8.84992 56.5311C9.39315 56.8376 9.81799 57.2694 10.1244 57.8265C10.3568 58.2491 10.4971 58.7157 10.5453 59.2264H3.42714Z" fill="#E86319"/>
<path d="M17.172 54.4626H15.2498V65.5363H17.2556V60.0204C17.2556 58.8085 17.569 57.8823 18.1958 57.2415C18.8226 56.6007 19.6723 56.2804 20.7449 56.2804H20.9538C21.0154 56.2804 21.0769 56.2841 21.1385 56.2917C21.1476 56.2928 21.1567 56.294 21.1658 56.2953C21.1787 56.2972 21.1916 56.2991 21.2045 56.3013V54.3582C20.1459 54.3582 19.2544 54.5601 18.5301 54.9641C17.9376 55.2945 17.4849 55.7461 17.172 56.3189V54.4626Z" fill="#E86319"/>
<path fill-rule="evenodd" clip-rule="evenodd" d="M28.422 69.7151C27.4052 69.7151 26.4162 69.5689 25.4551 69.2763C24.5079 68.9977 23.7348 68.5938 23.1359 68.0645L24.097 66.5183C24.6124 66.9641 25.2462 67.3123 25.9984 67.563C26.7505 67.8277 27.5375 67.96 28.3594 67.96C29.6687 67.96 30.6298 67.6536 31.2427 67.0407C31.8556 66.4278 32.162 65.4946 32.162 64.2409V63.36C31.7735 63.8323 31.3069 64.2095 30.7622 64.4917C29.9821 64.8817 29.1185 65.0767 28.1713 65.0767C27.0988 65.0767 26.1376 64.8538 25.288 64.4081C24.4522 63.9484 23.7836 63.3146 23.2822 62.5067C22.7946 61.6988 22.5509 60.7656 22.5509 59.707C22.5509 58.6344 22.7946 57.7012 23.2822 56.9072C23.7836 56.0993 24.4522 55.4725 25.288 55.0267C26.1376 54.581 27.0988 54.3582 28.1713 54.3582C29.1185 54.3582 29.9821 54.5532 30.7622 54.9432C31.3566 55.2298 31.8581 55.6378 32.2665 56.1672V54.4626H34.1678V64.032C34.1678 65.9821 33.6803 67.4168 32.7053 68.3361C31.7302 69.2555 30.3025 69.7151 28.422 69.7151ZM28.4011 63.3216C29.1394 63.3216 29.7941 63.1684 30.3652 62.8619C30.9362 62.5555 31.382 62.1306 31.7024 61.5874C32.0367 61.0442 32.2038 60.4174 32.2038 59.707C32.2038 58.9966 32.0367 58.3698 31.7024 57.8265C31.382 57.2833 30.9362 56.8654 30.3652 56.5729C29.7941 56.2664 29.1394 56.1132 28.4011 56.1132C27.6629 56.1132 27.0013 56.2664 26.4162 56.5729C25.8451 56.8654 25.3924 57.2833 25.0581 57.8265C24.7378 58.3698 24.5776 58.9966 24.5776 59.707C24.5776 60.4174 24.7378 61.0442 25.0581 61.5874C25.3924 62.1306 25.8451 62.5555 26.4162 62.8619C27.0013 63.1684 27.6629 63.3216 28.4011 63.3216Z" fill="#E86319"/>
<path fill-rule="evenodd" clip-rule="evenodd" d="M39.7764 64.9304C40.64 65.4179 41.6289 65.6617 42.7433 65.6617C43.8437 65.6617 44.8257 65.4179 45.6893 64.9304C46.5668 64.4429 47.2494 63.7743 47.7369 62.9246C48.2383 62.0749 48.4891 61.0999 48.4891 59.9995C48.4891 58.8851 48.2383 57.9101 47.7369 57.0744C47.2494 56.2247 46.5668 55.563 45.6893 55.0894C44.8257 54.6019 43.8437 54.3582 42.7433 54.3582C41.6289 54.3582 40.64 54.6019 39.7764 55.0894C38.9128 55.563 38.2302 56.2247 37.7288 57.0744C37.2273 57.924 36.9766 58.8991 36.9766 59.9995C36.9766 61.086 37.2273 62.061 37.7288 62.9246C38.2302 63.7743 38.9128 64.4429 39.7764 64.9304ZM44.6446 63.4261C44.0874 63.7464 43.4537 63.9066 42.7433 63.9066C42.0329 63.9066 41.3991 63.7464 40.8419 63.4261C40.2848 63.1057 39.839 62.653 39.5047 62.068C39.1704 61.469 39.0033 60.7795 39.0033 59.9995C39.0033 59.2055 39.1704 58.523 39.5047 57.9519C39.839 57.3669 40.2848 56.9142 40.8419 56.5938C41.3991 56.2734 42.0329 56.1132 42.7433 56.1132C43.4537 56.1132 44.0874 56.2734 44.6446 56.5938C45.2157 56.9142 45.6614 57.3669 45.9818 57.9519C46.3022 58.523 46.4624 59.2055 46.4624 59.9995C46.4624 60.7795 46.3022 61.469 45.9818 62.068C45.6614 62.653 45.2157 63.1057 44.6446 63.4261Z" fill="#E86319"/>
</svg>
