<svg width="83" height="143" viewBox="0 0 83 143" fill="none" xmlns="http://www.w3.org/2000/svg">
<path d="M9.97019 47.9703C9.62702 48.4426 10.194 49.0334 10.6835 48.716C11.8583 47.956 13.2936 47.0303 14.9247 45.9783L14.9283 45.976L14.9285 45.9759C26.0179 38.8237 46.1511 25.8388 54.9888 19.4142C70.3394 8.25484 52.2961 -9.20236 40.1619 5.85014C35.4672 11.6744 26.9127 23.8946 19.6297 34.2984L19.6296 34.2986L19.6294 34.2989C15.8152 39.7475 12.3497 44.6979 9.97019 47.9703Z" fill="white"/>
<path d="M18.588 64.7171C18.0012 64.761 17.9246 65.5877 18.491 65.7474C21.4172 66.5729 25.6745 67.8602 30.5438 69.3325L30.544 69.3326C39.4753 72.0331 50.4656 75.3563 59.0783 77.5945C73.085 81.2341 76.0866 61.0424 61.6902 61.8603C53.7498 62.3116 28.013 64.0179 18.588 64.7171Z" fill="white"/>
<path d="M14.0523 57.3483C13.4678 57.4432 13.2009 56.6498 13.7207 56.3666C14.2113 56.0993 14.7454 55.8079 15.3178 55.4957C22.406 51.6293 35.3706 44.5574 44.3938 40.1547C55.9078 34.5371 59.3701 50.3074 49.2975 51.7814C39.9403 53.1508 24.7661 55.6112 16.1315 57.0112C15.3872 57.1319 14.6915 57.2447 14.0523 57.3483Z" fill="white"/>
<path fill-rule="evenodd" clip-rule="evenodd" d="M12.5676 117.273C13.6263 117.752 14.577 118.413 15.3938 119.238C16.2106 120.062 16.8703 121.052 17.3551 122.184C17.841 123.318 18.0866 124.541 18.0866 125.818C18.0866 127.121 17.8405 128.35 17.3551 129.471C16.8703 130.59 16.2106 131.575 15.3938 132.399C14.577 133.224 13.6263 133.884 12.5676 134.364C11.5063 134.844 10.3839 135.089 9.23299 135.089C8.15745 135.089 7.20838 134.922 6.41319 134.593C5.62432 134.266 4.93926 133.898 4.37699 133.494C3.83579 133.126 3.3552 132.691 2.94574 132.201V135.051H0V108.258H2.94574V119.623C3.35414 119.123 3.83316 118.671 4.37646 118.277C4.93452 117.854 5.61905 117.455 6.40844 117.096C7.2068 116.732 8.15692 116.548 9.23299 116.548C10.3844 116.548 11.5063 116.792 12.5676 117.273ZM14.6233 128.388C14.9664 127.594 15.1408 126.729 15.1408 125.818C15.1408 124.907 14.9664 124.042 14.6233 123.249C14.2782 122.451 13.8223 121.752 13.2696 121.167C12.7168 120.582 12.0818 120.121 11.3841 119.795C10.6869 119.469 9.96284 119.304 9.23299 119.304C8.45097 119.304 7.6758 119.481 6.92961 119.831C6.18027 120.181 5.50048 120.656 4.90764 121.242C4.31744 121.827 3.83737 122.527 3.48167 123.322C3.12649 124.115 2.94574 124.954 2.94574 125.818C2.94574 126.706 3.12649 127.551 3.48167 128.332C3.83685 129.115 4.31691 129.808 4.90764 130.395C5.49943 130.98 6.17921 131.455 6.92909 131.806C8.37298 132.482 9.94386 132.515 11.3841 131.842C12.0833 131.516 12.7173 131.055 13.2696 130.47C13.8218 129.886 14.2776 129.186 14.6233 128.388Z" fill="white"/>
<path d="M21.5752 116.586H24.5204V135.051H21.5752V116.586Z" fill="white"/>
<path d="M23.047 108.561C22.529 108.561 22.0859 108.742 21.7307 109.097C21.376 109.451 21.1958 109.894 21.1958 110.413C21.1958 110.931 21.376 111.374 21.7307 111.728C22.0853 112.084 22.5285 112.263 23.047 112.263C23.565 112.263 24.0077 112.084 24.3629 111.728C24.7186 111.372 24.8983 110.93 24.8983 110.413C24.8983 109.895 24.7186 109.453 24.3629 109.097C24.0066 108.741 23.5645 108.561 23.047 108.561Z" fill="white"/>
<path d="M33.5173 118.094C34.0316 117.714 34.6719 117.359 35.4239 117.039C36.1827 116.713 37.1133 116.547 38.1889 116.547H39.0937V119.493H37.81C37.0759 119.493 36.3682 119.627 35.7074 119.891C35.0461 120.155 34.4506 120.531 33.9363 121.009C33.4241 121.487 33.0157 122.075 32.7227 122.756C32.4286 123.438 32.28 124.222 32.28 125.086V135.05H29.3348V116.586H32.28V119.266C32.6362 118.85 33.051 118.457 33.5173 118.094Z" fill="white"/>
<path fill-rule="evenodd" clip-rule="evenodd" d="M58.966 125.818C58.966 124.539 58.7136 123.316 58.2151 122.183C57.7176 121.051 57.0383 120.059 56.1962 119.235C55.3542 118.412 54.3513 117.75 53.2162 117.271C52.0806 116.791 50.8454 116.548 49.5438 116.548C48.2422 116.548 47.007 116.791 45.8709 117.271C44.7363 117.75 43.734 118.411 42.8919 119.235C42.0498 120.059 41.3706 121.051 40.8731 122.183C40.3746 123.316 40.1222 124.539 40.1222 125.818C40.1222 127.122 40.3746 128.351 40.8731 129.472C41.3706 130.591 42.0498 131.576 42.8919 132.4C43.734 133.225 44.7363 133.886 45.8709 134.365C47.0075 134.845 48.2427 135.088 49.5438 135.088C50.8449 135.088 52.0801 134.845 53.2162 134.365C54.3513 133.886 55.3542 133.224 56.1962 132.4C57.0383 131.576 57.7176 130.591 58.2151 129.472C58.7136 128.351 58.966 127.122 58.966 125.818ZM49.5438 132.332C48.6601 132.332 47.8206 132.16 47.0481 131.822C46.275 131.484 45.5831 131.022 44.9908 130.448C44.4027 129.876 43.929 129.182 43.5854 128.388C43.2423 127.595 43.0679 126.73 43.0679 125.818C43.0679 124.905 43.2423 124.041 43.5854 123.249C43.929 122.455 44.4027 121.756 44.9924 121.169C45.5826 120.586 46.2735 120.124 47.0465 119.797C47.8206 119.47 48.6606 119.304 49.5438 119.304C50.4265 119.304 51.267 119.47 52.0411 119.797C52.8142 120.124 53.5056 120.585 54.0958 121.169C54.6849 121.755 55.1586 122.454 55.5022 123.249C55.8458 124.042 56.0202 124.906 56.0202 125.818C56.0202 126.73 55.8458 127.594 55.5022 128.388C55.1581 129.183 54.6844 129.883 54.0958 130.466C53.5061 131.051 52.8147 131.513 52.0411 131.839C51.2686 132.167 50.4286 132.332 49.5438 132.332Z" fill="white"/>
<path d="M61.8312 139.589C62.2443 139.152 62.4535 138.466 62.4535 137.552V116.586H65.3987V137.552C65.3987 141.166 63.694 143 60.3304 143C59.9704 143 59.6495 142.973 59.3755 142.921C59.1031 142.869 58.8596 142.803 58.6509 142.724C58.3937 142.623 58.1714 142.518 57.9859 142.414L57.911 142.371V139.569L58.1329 139.694C58.3079 139.795 58.5076 139.894 58.7252 139.991C59.131 140.157 59.6089 140.242 60.1412 140.242C60.8521 140.242 61.4212 140.022 61.8312 139.589Z" fill="white"/>
<path d="M63.9251 108.561C63.4071 108.561 62.9639 108.742 62.6088 109.097C62.2536 109.452 62.0734 109.895 62.0734 110.413C62.0734 110.931 62.2541 111.373 62.6088 111.728C62.9634 112.084 63.4066 112.263 63.9251 112.263C64.4431 112.263 64.8858 112.084 65.241 111.728C65.5961 111.373 65.7764 110.931 65.7764 110.413C65.7764 109.895 65.5967 109.452 65.241 109.097C64.8847 108.741 64.4426 108.561 63.9251 108.561Z" fill="white"/>
<path d="M79.4196 125.574C80.1548 125.958 80.7819 126.478 81.2851 127.12C81.7957 127.774 82.0545 128.635 82.0545 129.679C82.0545 130.424 81.8969 131.134 81.5855 131.792C81.2751 132.451 80.8224 133.029 80.2417 133.513C79.6615 133.994 78.9454 134.382 78.1122 134.663C77.2802 134.946 76.329 135.088 75.2819 135.088C74.1331 135.088 73.1213 134.922 72.2761 134.594C71.4366 134.267 70.7247 133.897 70.1619 133.495C69.4953 133.041 68.9467 132.487 68.5341 131.851L68.4672 131.747L70.5703 129.774L70.6694 129.908C71.0129 130.367 71.4113 130.776 71.8535 131.121C72.246 131.444 72.7372 131.729 73.3147 131.971C73.8865 132.211 74.5484 132.332 75.2819 132.332C76.5772 132.332 77.551 132.063 78.1765 131.533C78.8042 131.001 79.1087 130.361 79.1087 129.577C79.1087 128.966 78.8858 128.493 78.4279 128.133C77.9499 127.758 77.3529 127.443 76.6525 127.195C75.9433 126.944 75.1507 126.701 74.2981 126.472C73.4333 126.241 72.6276 125.939 71.9041 125.573C71.1695 125.202 70.5424 124.701 70.0386 124.083C69.5269 123.453 69.2671 122.617 69.2671 121.594C69.2671 120.946 69.4189 120.307 69.7177 119.697C70.0149 119.09 70.4407 118.548 70.9855 118.088C71.5262 117.631 72.1839 117.257 72.9406 116.974C73.7 116.691 74.5521 116.548 75.4716 116.548C76.4439 116.548 77.3081 116.685 78.0401 116.955C78.7641 117.221 79.3901 117.512 79.9008 117.819C80.4889 118.176 81.009 118.592 81.4464 119.054L81.5454 119.159L79.4328 121.271L79.3301 121.14C79.0618 120.8 78.7399 120.49 78.3741 120.222C78.0401 120.007 77.6216 119.795 77.1374 119.596C76.6652 119.402 76.105 119.304 75.4716 119.304C74.4788 119.304 73.6768 119.561 73.0892 120.067C72.5001 120.574 72.2134 121.107 72.2134 121.696C72.2134 122.281 72.4347 122.729 72.8905 123.064C73.368 123.416 73.965 123.714 74.6675 123.951C75.3847 124.192 76.1772 124.429 77.0241 124.655C77.8909 124.888 78.6977 125.198 79.4196 125.574Z" fill="white"/>
<path fill-rule="evenodd" clip-rule="evenodd" d="M6.08579 104.326C7.54054 105.11 9.21909 105.501 11.1214 105.501C12.5986 105.501 13.9302 105.255 15.1164 104.763C16.3249 104.271 17.3321 103.554 18.1378 102.614L16.3585 100.533C15.7094 101.249 14.9485 101.786 14.0757 102.144C13.2252 102.502 12.274 102.682 11.2222 102.682C9.94645 102.682 8.81622 102.424 7.83146 101.909C6.84675 101.395 6.0746 100.678 5.5151 99.7609C5.11858 99.067 4.86843 98.306 4.76463 97.478H19.212C19.2344 97.3213 19.2456 97.1535 19.2456 96.9744C19.268 96.7954 19.2792 96.6387 19.2792 96.5045C19.2792 94.6693 18.8987 93.069 18.1378 91.7038C17.3992 90.3162 16.3697 89.2419 15.0492 88.481C13.7288 87.7201 12.2069 87.3396 10.4836 87.3396C8.78265 87.3396 7.24959 87.7312 5.88437 88.5146C4.54153 89.2755 3.47843 90.3386 2.69513 91.7038C1.93417 93.069 1.55371 94.6357 1.55371 96.4038C1.55371 98.1718 1.94536 99.7385 2.72869 101.104C3.53441 102.469 4.65341 103.543 6.08579 104.326ZM4.7584 95.1616C4.85257 94.3491 5.08243 93.6105 5.44793 92.9459C5.94031 92.0283 6.62292 91.3234 7.49575 90.831C8.36863 90.3162 9.36457 90.0588 10.4836 90.0588C11.625 90.0588 12.6209 90.3162 13.4714 90.831C14.3442 91.3234 15.0268 92.0172 15.5192 92.9124C15.8926 93.5913 16.1181 94.3411 16.1954 95.1616H4.7584Z" fill="white"/>
<path d="M26.8429 87.5075H23.7543V105.3H26.9772V96.4373C26.9772 94.4902 27.4807 93.0019 28.4878 91.9724C29.495 90.9429 30.8602 90.4281 32.5835 90.4281H32.9192C33.0181 90.4281 33.117 90.4342 33.216 90.4463C33.2306 90.4482 33.2452 90.4501 33.2599 90.4521C33.2806 90.4551 33.3013 90.4583 33.3221 90.4617V87.3396C31.6211 87.3396 30.1888 87.6641 29.025 88.3132C28.073 88.8441 27.3456 89.5697 26.8429 90.49V87.5075Z" fill="white"/>
<path fill-rule="evenodd" clip-rule="evenodd" d="M44.9187 112.014C43.285 112.014 41.6959 111.779 40.1517 111.309C38.6298 110.862 37.3876 110.213 36.4253 109.362L37.9696 106.878C38.7976 107.594 39.816 108.154 41.0245 108.556C42.233 108.982 43.4976 109.194 44.818 109.194C46.9218 109.194 48.466 108.702 49.4508 107.717C50.4356 106.732 50.9279 105.233 50.9279 103.219V101.803C50.3037 102.562 49.5539 103.168 48.6787 103.622C47.4254 104.248 46.0378 104.562 44.5159 104.562C42.7926 104.562 41.2483 104.203 39.8831 103.487C38.5402 102.749 37.466 101.73 36.6603 100.432C35.8769 99.1342 35.4853 97.6347 35.4853 95.9338C35.4853 94.2105 35.8769 92.711 36.6603 91.4352C37.466 90.1372 38.5402 89.1301 39.8831 88.4139C41.2483 87.6977 42.7926 87.3396 44.5159 87.3396C46.0378 87.3396 47.4254 87.6529 48.6787 88.2796C49.6339 88.7401 50.4396 89.3957 51.0958 90.2462V87.5075H54.1507V102.883C54.1507 106.016 53.3674 108.321 51.8008 109.799C50.2341 111.276 47.9401 112.014 44.9187 112.014ZM44.8852 101.742C46.0713 101.742 47.1232 101.495 48.0408 101.003C48.9584 100.511 49.6746 99.828 50.1894 98.9551C50.7265 98.0823 50.9951 97.0752 50.9951 95.9338C50.9951 94.7923 50.7265 93.7852 50.1894 92.9124C49.6746 92.0395 48.9584 91.3681 48.0408 90.8981C47.1232 90.4057 46.0713 90.1596 44.8852 90.1596C43.699 90.1596 42.6359 90.4057 41.6959 90.8981C40.7783 91.3681 40.0509 92.0395 39.5138 92.9124C38.9991 93.7852 38.7417 94.7923 38.7417 95.9338C38.7417 97.0752 38.9991 98.0823 39.5138 98.9551C40.0509 99.828 40.7783 100.511 41.6959 101.003C42.6359 101.495 43.699 101.742 44.8852 101.742Z" fill="white"/>
<path fill-rule="evenodd" clip-rule="evenodd" d="M63.1622 104.326C64.5498 105.11 66.1388 105.501 67.9293 105.501C69.6973 105.501 71.2752 105.11 72.6627 104.326C74.0728 103.543 75.1694 102.469 75.9527 101.104C76.7584 99.7385 77.1613 98.1718 77.1613 96.4038C77.1613 94.6133 76.7584 93.0467 75.9527 91.7038C75.1694 90.3386 74.0728 89.2755 72.6627 88.5146C71.2752 87.7312 69.6973 87.3396 67.9293 87.3396C66.1388 87.3396 64.5498 87.7312 63.1622 88.5146C61.7746 89.2755 60.6779 90.3386 59.8722 91.7038C59.0665 93.069 58.6637 94.6357 58.6637 96.4038C58.6637 98.1494 59.0665 99.7161 59.8722 101.104C60.6779 102.469 61.7746 103.543 63.1622 104.326ZM70.9842 101.909C70.089 102.424 69.0707 102.682 67.9293 102.682C66.7878 102.682 65.7695 102.424 64.8743 101.909C63.9791 101.395 63.2629 100.667 62.7257 99.7273C62.1886 98.7649 61.92 97.6571 61.92 96.4038C61.92 95.128 62.1886 94.0314 62.7257 93.1138C63.2629 92.1738 63.9791 91.4464 64.8743 90.9317C65.7695 90.4169 66.7878 90.1596 67.9293 90.1596C69.0707 90.1596 70.089 90.4169 70.9842 90.9317C71.9018 91.4464 72.618 92.1738 73.1327 93.1138C73.6475 94.0314 73.9049 95.128 73.9049 96.4038C73.9049 97.6571 73.6475 98.7649 73.1327 99.7273C72.618 100.667 71.9018 101.395 70.9842 101.909Z" fill="white"/>
</svg>
