<svg width="17" height="15" viewBox="0 0 17 15" fill="none" xmlns="http://www.w3.org/2000/svg">
<path d="M16.1747 13.321C16.1747 12.6764 15.7957 12.0907 15.2083 11.8254C14.1425 11.3439 12.4075 10.5543 11.0816 9.92692C10.1762 9.49852 9.97804 8.39156 10.5528 7.57128C11.2444 6.58435 11.9502 5.30246 12.0094 4.04837C12.0876 2.39481 10.9548 0 8.41151 0C8.40664 0 8.40187 0.000260426 8.39701 0.000347232C8.39215 0.000260426 8.38737 0 8.38251 0C5.83927 0 4.70645 2.39481 4.78457 4.04837C4.84383 5.30253 5.5497 6.58443 6.24134 7.57134C6.81616 8.39158 6.61794 9.49849 5.71256 9.92687C4.38665 10.5542 2.65143 11.3439 1.58558 11.8254C0.998207 12.0908 0.619158 12.6764 0.619142 13.3209L0.619141 13.3796C0.619119 14.2745 1.34459 15 2.23952 15H14.5544C15.4493 15 16.1747 14.2745 16.1747 13.3796V13.321Z" fill="#1F2022"/>
</svg>
