<svg width="17" height="15" viewBox="0 0 17 15" fill="none" xmlns="http://www.w3.org/2000/svg">
<path d="M16.1767 13.321C16.1767 12.6764 15.7976 12.0907 15.2103 11.8254C14.1445 11.3439 12.4094 10.5543 11.0836 9.92692C10.1782 9.49852 9.97999 8.39156 10.5548 7.57128C11.2464 6.58435 11.9521 5.30246 12.0114 4.04837C12.0895 2.39481 10.9568 0 8.41346 0C8.4086 0 8.40382 0.000260426 8.39896 0.000347232C8.3941 0.000260426 8.38933 0 8.38447 0C5.84122 0 4.7084 2.39481 4.78652 4.04837C4.84579 5.30253 5.55166 6.58443 6.24329 7.57134C6.81811 8.39158 6.61989 9.49849 5.71452 9.92687C4.38861 10.5542 2.65339 11.3439 1.58753 11.8254C1.00016 12.0908 0.621111 12.6764 0.621095 13.3209L0.621094 13.3796C0.621072 14.2745 1.34655 15 2.24147 15H14.5563C15.4512 15 16.1767 14.2745 16.1767 13.3796V13.321Z" fill="white"/>
</svg>
